# xmcd
#
# Track frame offsets:
#	150
#	13501
#	24407
#	38846
#	51047
#	64220
#	76185
#	86732
#	100002
#	116690
#	131109
#	148452
#	160023
#	174266
#
# Disc length: 2507 seconds
#
# Revision: 1
# Processed by: cddbd v1.5.2PL0 Copyright (c) Steve Scherf et al.
# Submitted via: audiograbber 1.83.01
#
DISCID=b209c90e
DTITLE=Shaun Loughrey - The Land That I Love
DYEAR=1900
DGENRE=
TTITLE0=The Land That I Love
TTITLE1=Say It Again
TTITLE2=Just Someone I Used To Know
TTITLE3=Love Is All That Matters
TTITLE4=If You Had Only Taken The Time
TTITLE5=I'll Take A Chance On Loving You
TTITLE6=Just Inside Your Arms
TTITLE7=Mary With The Golden Hair
TTITLE8=Embrace Of The Father And Bride
TTITLE9=All I Ever Need Is You
TTITLE10=I Die A Little More Each Day
TTITLE11=Hope You're Feeling Me Like I'm Feeling You
TTITLE12=I Dreamed You Didn't Love Me Anymore
TTITLE13=She's Just An Old Love Turned Memory
EXTD=
EXTT0=
EXTT1=
EXTT2=
EXTT3=
EXTT4=
EXTT5=
EXTT6=
EXTT7=
EXTT8=
EXTT9=
EXTT10=
EXTT11=
EXTT12=
EXTT13=
PLAYORDER=
